# xmcd
#
# Track frame offsets: 
#        150
#        18592
#        36546
#        54588
#        72981
#        90414
#        112514
#        134886
#        156535
#        174502
#        195732
#        216746
#        235997
#        257382
#        275426
#        294130
#
# Disc length: 4142 seconds
#
# Revision: 0
# Processed by: cddbd v1.5.2PL0 Copyright (c) Steve Scherf et al.
# Submitted via: ExactAudioCopy v1.3
#
DISCID=f0102c10
DTITLE=ちあきなおみ - 全曲集 
DYEAR=1997
DGENRE=JPop
TTITLE0=紅とんぼ
TTITLE1=矢切の渡し
TTITLE2=さだめ川
TTITLE3=歳月河
TTITLE4=喝采
TTITLE5=雨に濡れた慕情
TTITLE6=悲しみを拾って
TTITLE7=かもめの街
TTITLE8=イマージュ
TTITLE9=伝わりますか
TTITLE10=冬隣
TTITLE11=役者
TTITLE12=都の雨に
TTITLE13=情け歌
TTITLE14=君知らず
TTITLE15=しのび雪
EXTD=
EXTT0=
EXTT1=
EXTT2=
EXTT3=
EXTT4=
EXTT5=
EXTT6=
EXTT7=
EXTT8=
EXTT9=
EXTT10=
EXTT11=
EXTT12=
EXTT13=
EXTT14=
EXTT15=
PLAYORDER=
